<svg width="18" height="18" viewBox="0 0 18 18" fill="none" xmlns="http://www.w3.org/2000/svg">
<path d="M6.75079 4.2H11.2492C11.4272 4.2 11.5705 4.3338 11.5705 4.5C11.5705 4.6662 11.4272 4.8 11.2492 4.8H6.75079C6.57279 4.8 6.42948 4.6662 6.42948 4.5C6.42948 4.3338 6.57279 4.2 6.75079 4.2ZM2.25238 4.2C1.72286 4.2 1.33856 4.6164 1.28972 5.07L0.00446395 17.07C-0.0520875 17.598 0.437597 18 0.967124 18H17.0329C17.5624 18 18.0521 17.5968 17.9955 17.07L16.7103 5.07C16.6614 4.617 16.2771 4.2 15.7476 4.2H13.8197C13.3892 4.2 13.402 4.8 13.8197 4.8H15.7476C15.9301 4.8 16.0477 4.9224 16.0702 5.13L17.3555 17.13C17.3703 17.265 17.2154 17.4 17.0329 17.4H0.967124C0.784617 17.4 0.629743 17.265 0.644524 17.13L1.92978 5.13C1.95228 4.9224 2.06988 4.8 2.25238 4.8H4.18027C4.61084 4.8 4.60055 4.2 4.18027 4.2H2.25238ZM9 0C6.87418 0 5.14422 1.6152 5.14422 3.6V6.3C5.14422 6.699 5.78685 6.699 5.78685 6.3V3.6C5.78685 1.9398 7.22184 0.6 9 0.6C10.7782 0.6 12.2132 1.9398 12.2132 3.6V6.3C12.2132 6.699 12.8558 6.6942 12.8558 6.3V3.6C12.8558 1.6152 11.1258 0 9 0Z" fill="#ABABAB"/>
</svg>
