<svg width="18" height="18" viewBox="0 0 18 18" fill="none" xmlns="http://www.w3.org/2000/svg">
<path d="M7.20316 0C3.22531 0 0 3.12125 0 6.97071C0 10.8202 3.22531 13.9414 7.20316 13.9414C8.73277 13.9414 10.1514 13.4797 11.3174 12.6932L16.7647 17.9639C16.8138 18.0115 16.8935 18.0115 16.9401 17.9672L17.9664 16.9741C18.0138 16.9281 18.0096 16.8494 17.963 16.8043L12.5868 11.6017C13.719 10.3708 14.4063 8.74862 14.4063 6.97068C14.4063 3.12125 11.181 0 7.20316 0ZM7.20316 13.1213C3.69311 13.1213 0.847423 10.3675 0.847423 6.97071C0.847423 3.57393 3.69308 0.820105 7.20316 0.820105C10.7132 0.820105 13.5589 3.57393 13.5589 6.97071C13.5589 10.3675 10.7132 13.1213 7.20316 13.1213Z" fill="#ABABAB"/>
</svg>
